<svg width="512" height="512" viewBox="0 0 512 512" fill="none" xmlns="http://www.w3.org/2000/svg">
  <defs>
    <linearGradient id="bg" x1="0" y1="0" x2="512" y2="512" gradientUnits="userSpaceOnUse">
      <stop offset="0%" stop-color="#22c55e"/>
      <stop offset="100%" stop-color="#15803d"/>
    </linearGradient>
  </defs>

  <!-- 배경 -->
  <rect width="512" height="512" rx="96" fill="url(#bg)"/>

  <!-- 그릇 몸체 -->
  <path d="M112 284 Q112 400 256 400 Q400 400 400 284 Z" fill="white"/>
  <!-- 그릇 테두리 -->
  <rect x="96" y="264" width="320" height="32" rx="16" fill="white"/>

  <!-- 김 (steam) 3줄 -->
  <path d="M184 220 Q174 196 184 172 Q194 148 184 124" stroke="white" stroke-width="14" stroke-linecap="round" fill="none"/>
  <path d="M256 212 Q246 188 256 164 Q266 140 256 116" stroke="white" stroke-width="14" stroke-linecap="round" fill="none"/>
  <path d="M328 220 Q318 196 328 172 Q338 148 328 124" stroke="white" stroke-width="14" stroke-linecap="round" fill="none"/>

  <!-- 잎사귀 -->
  <path d="M340 180 Q380 130 400 112 Q416 128 404 158 Q420 148 428 132 Q438 164 416 186 Q434 190 428 214 Q402 236 368 224 Q358 254 344 272 L332 266 Q344 240 342 216 Q316 210 312 186 Q312 168 340 180Z" fill="white" opacity="0.92"/>
  <path d="M344 272 Q352 244 382 202" stroke="#22c55e" stroke-width="5" stroke-linecap="round" fill="none"/>
</svg>
